<?xml version="1.0" encoding="UTF-8"?>
<svg t="1564478377130" class="icon" viewBox="0 0 1024 1024" version="1.1" xmlns="http://www.w3.org/2000/svg" p-id="1745" width="200" height="200"><path d="M58.96704 172.08832H954.88V619.52H58.96704z" fill="#FFFFFF" p-id="1746"></path><path d="M963.33824 619.90912v50.86208c0 37.08416-30.04928 67.13344-67.13344 67.13344H126.10048c-37.08416 0-67.13344-30.04928-67.13344-67.13344v-50.86208h904.3712z" fill="#8B87C1" p-id="1747"></path><path d="M632.55552 805.0432v5.75488c0 37.08416-30.04928 67.13344-67.13344 67.13344H456.85248c-37.08416 0-67.13344-30.04928-67.13344-67.13344v-5.75488c0-37.08416 30.04928-67.13344 67.13344-67.13344h108.56448c37.08928 0 67.13856 30.0544 67.13856 67.13344z" fill="#5FCEFF" p-id="1748"></path><path d="M896.2048 760.28928h-330.78272a22.37952 22.37952 0 0 1 0-44.75904h330.78272c24.6784 0 44.75904-20.07552 44.75904-44.75904V216.84736c0-24.6784-20.07552-44.75904-44.75904-44.75904H126.10048c-24.6784 0-44.75904 20.07552-44.75904 44.75904v453.92896c0 24.6784 20.07552 44.75904 44.75904 44.75904h330.752a22.37952 22.37952 0 0 1 0 44.75904h-330.752c-49.3568 0-89.51296-40.15616-89.51296-89.51296V216.84736c0-49.3568 40.15616-89.51296 89.51296-89.51296H896.2048c49.3568 0 89.51296 40.15616 89.51296 89.51296v453.92896c0 49.3568-40.15616 89.51296-89.51296 89.51296z" fill="#4F46A3" p-id="1749"></path><path d="M565.42208 900.31616a22.37952 22.37952 0 0 1 0-44.75904c24.6784 0 44.75904-20.07552 44.75904-44.75904v-5.76c0-24.6784-20.07552-44.75904-44.75904-44.75904H456.85248c-24.6784 0-44.75904 20.07552-44.75904 44.75904v5.76c0 24.6784 20.07552 44.75904 44.75904 44.75904a22.37952 22.37952 0 0 1 0 44.75904c-49.3568 0-89.51296-40.15616-89.51296-89.51296v-5.76c0-49.3568 40.15616-89.51296 89.51296-89.51296h108.56448c49.3568 0 89.51296 40.15616 89.51296 89.51296v5.76c0.00512 49.3568-40.15104 89.51296-89.50784 89.51296z" fill="#4F46A3" p-id="1750"></path><path d="M747.00288 900.31616H275.27168a22.37952 22.37952 0 0 1 0-44.75904H747.008a22.37952 22.37952 0 1 1-0.00512 44.75904z m216.33536-258.0224H58.96704a22.37952 22.37952 0 0 1 0-44.75904h904.3712a22.37952 22.37952 0 0 1 0 44.75904z" fill="#4F46A3" p-id="1751"></path></svg>